# xmcd
#
# Track frame offsets: 
#        150
#        37418
#        71081
#        93526
#        122985
#        155703
#        183200
#        202087
#        234956
#        265096
#
# Disc length: 3932 seconds
#
# Revision: 0
# Processed by: cddbd v1.5.2PL0 Copyright (c) Steve Scherf et al.
# Submitted via: ExactAudioCopy v1.0b3
#
DISCID=940f5a0a
DTITLE=Various Artist - Clubbers Nation Vol. 02 - CD 2
DYEAR=1900
DGENRE=
TTITLE0=Alexx - Last Night A DJ Saved My Life (JJ Club Mix)
TTITLE1=John De Ago - Subina (South Side Original)
TTITLE2=Love Corporation - You're A Superstar (Club Version)
TTITLE3=Armand Van Helden - Funk Phenomena 2K (Da Hool Rmx)
TTITLE4=Masai - Do That Thing (Intenso Full Vocal Mix)
TTITLE5=Lida Cliffard - Going Back To My Roots (Mantronix Rmx)
TTITLE6=A.I. - Absolute
TTITLE7=Duke - Greater (Love Club Mix)
TTITLE8=Robbie Rivera and Axwell - Burning (Robbie's Filta Funk)
TTITLE9=Benny Benassi - Satisfaction (Isak Original)
EXTD=
EXTT0=
EXTT1=
EXTT2=
EXTT3=
EXTT4=
EXTT5=
EXTT6=
EXTT7=
EXTT8=
EXTT9=
PLAYORDER=
